<?xml version="1.0" standalone="no"?><!DOCTYPE svg PUBLIC "-//W3C//DTD SVG 1.1//EN" "http://www.w3.org/Graphics/SVG/1.1/DTD/svg11.dtd"><svg t="1723104839889" class="icon" viewBox="0 0 1024 1024" version="1.1" xmlns="http://www.w3.org/2000/svg" p-id="4536" xmlns:xlink="http://www.w3.org/1999/xlink" width="32" height="32"><path d="M1009.371429 512c0 111.177143-36.571429 213.577143-98.011429 296.96-33.645714 45.348571-76.068571 84.845714-122.88 117.028571l-43.885714 26.331429A501.76 501.76 0 0 1 512 1009.371429c-134.582857 0-257.462857-54.125714-346.697143-140.434286C73.142857 778.24 14.628571 652.434286 14.628571 512 14.628571 236.982857 236.982857 14.628571 512 14.628571s497.371429 222.354286 497.371429 497.371429z" fill="#D8D8D8" p-id="4537"></path><path d="M596.845714 624.64c-20.48-27.794286-30.72-57.051429-30.72-92.16 0-7.314286-7.314286-11.702857-13.165714-10.24 0-1.462857-1.462857-1.462857-2.925714-2.925714-29.257143-19.017143-68.754286-14.628571-100.937143-2.925715-2.925714 1.462857-4.388571 2.925714-5.851429 5.851429-4.388571 0-7.314286 4.388571-5.851428 8.777143 10.24 42.422857-5.851429 70.217143-23.405715 105.325714-10.24 19.017143-14.628571 39.497143-7.314285 61.44 14.628571 48.274286 64.365714 70.217143 111.177143 68.754286 45.348571-2.925714 90.697143-24.868571 98.011428-74.605714 4.388571-27.794286-4.388571-48.274286-19.017143-67.291429z" fill="#FFFFFF" p-id="4538"></path><path d="M681.691429 332.068571c-1.462857 0 4.388571-43.885714 1.462857-62.902857-14.628571-108.251429-157.988571-96.548571-236.982857-95.085714-46.811429 0-74.605714 24.868571-87.771429 70.217143-8.777143 30.72-13.165714 64.365714-11.702857 96.548571-7.314286-1.462857-16.091429 1.462857-21.942857 7.314286-8.777143 8.777143-8.777143 23.405714-7.314286 33.645714 1.462857 11.702857 5.851429 24.868571 16.091429 29.257143 5.851429 2.925714 13.165714 4.388571 19.017142 2.925714 0 1.462857 0 2.925714 1.462858 5.851429 0 1.462857 0 1.462857 1.462857 2.925714 5.851429 30.72 17.554286 59.977143 36.571428 84.845715 49.737143 68.754286 141.897143 86.308571 207.725715 30.72 35.108571-29.257143 55.588571-71.68 67.291428-115.565715 1.462857-2.925714 1.462857-7.314286 2.925714-11.702857h2.925715c32.182857-2.925714 30.72-71.68 11.702857-78.994286-1.462857 1.462857-2.925714 1.462857-2.925714 0z" fill="#FFFFFF" p-id="4539"></path><path d="M681.691429 209.188571c-16.091429-35.108571-43.885714-55.588571-78.994286-68.754285-42.422857-17.554286-92.16-26.331429-137.508572-23.405715-30.72 2.925714-67.291429 17.554286-73.142857 51.2-74.605714-4.388571-65.828571 102.4-62.902857 156.525715 0 2.925714 1.462857 1.462857-1.462857 7.314285s0 11.702857 0 11.702858c8.777143-7.314286 20.48-5.851429 24.868571 1.462857 4.388571 8.777143 1.462857 17.554286 2.925715 26.331428 0 1.462857 1.462857 7.314286 4.388571 7.314286 1.462857 0 2.925714 4.388571 5.851429 4.388571 1.462857 0 8.777143-7.314286 8.777143-14.628571 1.462857-23.405714 20.48-33.645714 32.182857-51.2 7.314286-8.777143 13.165714-19.017143 19.017143-29.257143 4.388571-10.24 7.314286-20.48 10.24-30.72 10.24 21.942857 40.96 33.645714 61.44 42.422857 23.405714 8.777143 45.348571 13.165714 70.217142 14.628572 21.942857 0 46.811429 1.462857 65.828572 11.702857l1.462857 1.462857c8.777143 5.851429 16.091429 11.702857 20.48 21.942857 4.388571 10.24 2.925714 10.24 4.388571 13.165714 1.462857 4.388571 10.24 1.462857 10.24 0 0-7.314286 0-16.091429 2.925715-23.405714 1.462857-2.925714 4.388571-7.314286 5.851428-8.777143 4.388571-1.462857 5.851429-1.462857 8.777143 0 2.925714 1.462857 4.388571 4.388571 7.314286 5.851429 1.462857-1.462857 1.462857-2.925714 2.925714-4.388572 0-54.125714-4.388571-96.548571-16.091428-122.88z" fill="#999999" p-id="4540"></path><path d="M911.36 808.96c-33.645714 45.348571-76.068571 84.845714-122.88 117.028571-11.702857-4.388571-30.72-38.034286-40.96-32.182857-8.777143 5.851429-2.925714 42.422857-2.925714 58.514286A501.76 501.76 0 0 1 512 1009.371429c-134.582857 0-257.462857-54.125714-346.697143-140.434286 2.925714-27.794286 17.554286-52.662857 24.868572-80.457143 7.314286-26.331429 14.628571-49.737143 21.942857-73.142857 13.165714-30.72 14.628571-45.348571 35.108571-54.125714 19.017143-8.777143 59.977143-14.628571 93.622857-26.331429 19.017143-5.851429 40.96-19.017143 62.902857-20.48 2.925714-1.462857 4.388571-2.925714 7.314286-2.925714h10.24c1.462857-1.462857 4.388571-1.462857 5.851429 1.462857 1.462857 2.925714 2.925714 4.388571 4.388571 7.314286 43.885714 40.96 112.64 32.182857 156.525714-2.925715 0 0 0-1.462857 1.462858-1.462857 20.48-11.702857 49.737143 11.702857 77.531428 16.091429 45.348571 7.314286 80.457143 17.554286 114.102857 30.72 32.182857 13.165714 42.422857 45.348571 77.531429 87.771428 26.331429 32.182857 39.497143 46.811429 52.662857 58.514286z" fill="#B3B3B3" p-id="4541"></path><path d="M630.491429 741.668571h-81.92l-57.051429 117.028572h51.2L526.628571 890.88h-130.194285l49.737143-100.937143h24.868571l-1.462857 58.514286 52.662857-106.788572h-103.862857l-93.622857 191.634286h234.057143l57.051428-117.028571h-52.662857l13.165714-26.331429h54.125715l30.72-64.365714z" fill="#F8FCFF" p-id="4542"></path></svg>